MulatAbay-Regular.ufo
<glyph name="comma" format="2">
  <advance width="402"/>
  <unicode hex="002C"/>
  <note>
uni002C
</note>
  <outline>
    <contour>
      <point x="134" y="-290" type="line"/>
      <point x="234" y="-208.667"/>
      <point x="308" y="-60.667"/>
      <point x="308" y="74" type="curve" smooth="yes"/>
      <point x="308" y="219" type="line"/>
      <point x="127" y="219" type="line"/>
      <point x="127" y="52" type="line" smooth="yes"/>
      <point x="124.333" y="-40.667"/>
      <point x="91.667" y="-130.667"/>
      <point x="29" y="-218" type="curve"/>
    </contour>
  </outline>
</glyph>
<glyph name="at" format="2">
  <advance width="1839"/>
  <unicode hex="0040"/>
  <note>
uni0040
</note>
  <outline>
    <contour>
      <point x="895" y="-453" type="curve" smooth="yes"/>
      <point x="1035" y="-453"/>
      <point x="1184.333" y="-416"/>
      <point x="1267" y="-364" type="curve"/>
      <point x="1230" y="-249" type="line"/>
      <point x="1150" y="-295.667"/>
      <point x="1019" y="-328"/>
      <point x="899" y="-328" type="curve" smooth="yes"/>
      <point x="443" y="-328"/>
      <point x="241" y="20"/>
      <point x="263" y="478" type="curve" smooth="yes"/>
      <point x="277.667" y="806"/>
      <point x="402" y="1066.833"/>
      <point x="610" y="1199.5" type="curve" smooth="yes"/>
      <point x="714" y="1265.833"/>
      <point x="833" y="1299"/>
      <point x="967" y="1299" type="curve" smooth="yes"/>
      <point x="1412.333" y="1299"/>
      <point x="1634.333" y="1020.667"/>
      <point x="1609" y="502" type="curve" smooth="yes"/>
      <point x="1601" y="262"/>
      <point x="1500.667" y="98"/>
      <point x="1350" y="98" type="curve" smooth="yes"/>
      <point x="1252" y="98"/>
      <point x="1209.333" y="175"/>
      <point x="1222" y="329" type="curve" smooth="yes"/>
      <point x="1274" y="883" type="line"/>
      <point x="1167.333" y="967"/>
      <point x="1093" y="989"/>
      <point x="985" y="989" type="curve" smooth="yes"/>
      <point x="845" y="989"/>
      <point x="709.167" y="884.167"/>
      <point x="628.5" y="711.5" type="curve" smooth="yes"/>
      <point x="588.167" y="625.167"/>
      <point x="563" y="527"/>
      <point x="553" y="417" type="curve" smooth="yes"/>
      <point x="527.667" y="143.667"/>
      <point x="632.667" y="-20"/>
      <point x="822" y="-20" type="curve" smooth="yes"/>
      <point x="920.667" y="-20"/>
      <point x="1017" y="34.667"/>
      <point x="1089" y="148" type="curve"/>
      <point x="1124.333" y="36"/>
      <point x="1204.333" y="-20"/>
      <point x="1329" y="-20" type="curve" smooth="yes"/>
      <point x="1570.333" y="-20"/>
      <point x="1722" y="179.333"/>
      <point x="1738" y="502" type="curve" smooth="yes"/>
      <point x="1754" y="879.333"/>
      <point x="1635.333" y="1169.667"/>
      <point x="1398" y="1319" type="curve" smooth="yes"/>
      <point x="1279.333" y="1393.667"/>
      <point x="1137" y="1431"/>
      <point x="971" y="1431" type="curve" smooth="yes"/>
      <point x="652.333" y="1431"/>
      <point x="389" y="1265.167"/>
      <point x="241" y="972.5" type="curve" smooth="yes"/>
      <point x="167" y="826.167"/>
      <point x="126" y="661.333"/>
      <point x="118" y="478" type="curve" smooth="yes"/>
      <point x="95" y="-59"/>
      <point x="358" y="-453"/>
    </contour>
    <contour>
      <point x="867" y="123" type="curve" smooth="yes"/>
      <point x="749.667" y="123"/>
      <point x="693.333" y="227.667"/>
      <point x="712" y="417" type="curve" smooth="yes"/>
      <point x="737.333" y="691.667"/>
      <point x="845" y="861"/>
      <point x="1001" y="861" type="curve" smooth="yes"/>
      <point x="1043.667" y="861"/>
      <point x="1083.667" y="851.333"/>
      <point x="1121" y="832" type="curve"/>
      <point x="1074" y="320" type="line"/>
      <point x="1026" y="193.333"/>
      <point x="947" y="123"/>
    </contour>
  </outline>
</glyph>
<glyph name="S" format="2">
  <advance width="1215"/>
  <unicode hex="0053"/>
  <note>
uni0053
</note>
  <outline>
    <contour>
      <point x="631" y="-20" type="curve" smooth="yes"/>
      <point x="939" y="-20"/>
      <point x="1138" y="134"/>
      <point x="1138" y="370" type="curve" smooth="yes"/>
      <point x="1138" y="642"/>
      <point x="909" y="747"/>
      <point x="652.5" y="819" type="curve" smooth="yes"/>
      <point x="410.5" y="887"/>
      <point x="320" y="963.333"/>
      <point x="320" y="1082" type="curve" smooth="yes"/>
      <point x="320" y="1230"/>
      <point x="431.667" y="1318"/>
      <point x="621" y="1318" type="curve" smooth="yes"/>
      <point x="825" y="1318"/>
      <point x="942" y="1211"/>
      <point x="942" y="1035" type="curve"/>
      <point x="1135" y="1035" type="line"/>
      <point x="1135" y="1196.333"/>
      <point x="1045.167" y="1340.667"/>
      <point x="888.5" y="1418" type="curve" smooth="yes"/>
      <point x="810.167" y="1456.667"/>
      <point x="721" y="1476"/>
      <point x="621" y="1476" type="curve" smooth="yes"/>
      <point x="523" y="1476"/>
      <point x="434" y="1457"/>
      <point x="361" y="1423" type="curve" smooth="yes"/>
      <point x="215" y="1357"/>
      <point x="126" y="1231"/>
      <point x="126" y="1079" type="curve" smooth="yes"/>
      <point x="126" y="876.333"/>
      <point x="268.667" y="743.667"/>
      <point x="598" y="649" type="curve" smooth="yes"/>
      <point x="860.667" y="573"/>
      <point x="945" y="510.667"/>
      <point x="945" y="368" type="curve" smooth="yes"/>
      <point x="945" y="225.333"/>
      <point x="833.667" y="137"/>
      <point x="631" y="137" type="curve" smooth="yes"/>
      <point x="413.667" y="137"/>
      <point x="273" y="246"/>
      <point x="273" y="422" type="curve"/>
      <point x="80" y="422" type="line"/>
      <point x="80" y="252.667"/>
      <point x="177.667" y="114.167"/>
      <point x="351" y="37.5" type="curve" smooth="yes"/>
      <point x="437.667" y="-0.833"/>
      <point x="531" y="-20"/>
    </contour>
  </outline>
</glyph>
<glyph name="Z" format="2">
  <advance width="1226"/>
  <unicode hex="005A"/>
  <note>
uni005A
</note>
  <outline>
    <contour>
      <point x="86" y="0" type="line"/>
      <point x="1146" y="0" type="line"/>
      <point x="1146" y="157" type="line"/>
      <point x="313" y="157" type="line"/>
      <point x="1114" y="1315" type="line"/>
      <point x="1114" y="1456" type="line"/>
      <point x="99" y="1456" type="line"/>
      <point x="99" y="1298" type="line"/>
      <point x="884" y="1298" type="line"/>
      <point x="86" y="144" type="line"/>
    </contour>
  </outline>
</glyph>
<glyph name="x" format="2">
  <advance width="1015"/>
  <unicode hex="0078"/>
  <note>
uni0078
</note>
  <outline>
    <contour>
      <point x="41" y="0" type="line"/>
      <point x="256" y="0" type="line"/>
      <point x="506" y="405" type="line"/>
      <point x="756" y="0" type="line"/>
      <point x="970" y="0" type="line"/>
      <point x="605" y="547" type="line"/>
      <point x="959" y="1082" type="line"/>
      <point x="743" y="1082" type="line"/>
      <point x="503" y="687" type="line"/>
      <point x="266" y="1082" type="line"/>
      <point x="52" y="1082" type="line"/>
      <point x="406" y="547" type="line"/>
    </contour>
  </outline>
</glyph>
<glyph name="y" format="2">
  <advance width="969"/>
  <unicode hex="0079"/>
  <note>
uni0079
</note>
  <outline>
    <contour>
      <point x="188" y="-437" type="line"/>
      <point x="334.667" y="-437"/>
      <point x="441.667" y="-347"/>
      <point x="509" y="-167" type="curve"/>
      <point x="944" y="1082" type="line"/>
      <point x="746" y="1082" type="line"/>
      <point x="494" y="271" type="line"/>
      <point x="224" y="1082" type="line"/>
      <point x="22" y="1082" type="line"/>
      <point x="408" y="12" type="line"/>
      <point x="367" y="-98" type="line" smooth="yes"/>
      <point x="321.667" y="-232.667"/>
      <point x="259.333" y="-275"/>
      <point x="84" y="-271" type="curve"/>
      <point x="84" y="-421" type="line"/>
    </contour>
  </outline>
</glyph>
<glyph name="braceleft" format="2">
  <advance width="693"/>
  <unicode hex="007B"/>
  <note>
uni007B
</note>
  <outline>
    <contour>
      <point x="632" y="-366" type="curve"/>
      <point x="670" y="-251" type="line"/>
      <point x="532.667" y="-207"/>
      <point x="463" y="-93.333"/>
      <point x="461" y="90" type="curve" smooth="yes"/>
      <point x="461" y="296" type="line" smooth="yes"/>
      <point x="461" y="448.667"/>
      <point x="405.333" y="555"/>
      <point x="294" y="615" type="curve"/>
      <point x="405.333" y="674.333"/>
      <point x="461" y="779.667"/>
      <point x="461" y="931" type="curve" smooth="yes"/>
      <point x="461" y="1133" type="line" smooth="yes"/>
      <point x="461" y="1321"/>
      <point x="530.667" y="1437.333"/>
      <point x="670" y="1482" type="curve"/>
      <point x="632" y="1597" type="line"/>
      <point x="393.333" y="1529"/>
      <point x="278.667" y="1382"/>
      <point x="276" y="1138" type="curve" smooth="yes"/>
      <point x="276" y="930" type="line" smooth="yes"/>
      <point x="276" y="768.667"/>
      <point x="205.333" y="688"/>
      <point x="64" y="688" type="curve"/>
      <point x="64" y="543" type="line"/>
      <point x="205.333" y="543"/>
      <point x="276" y="462"/>
      <point x="276" y="300" type="curve" smooth="yes"/>
      <point x="276" y="101" type="line" smooth="yes"/>
      <point x="276" y="-149.667"/>
      <point x="396" y="-299.333"/>
    </contour>
  </outline>
</glyph>
<glyph name="exclamdown" format="2">
  <advance width="499"/>
  <unicode hex="00A1"/>
  <note>
uni00A1
</note>
  <outline>
    <contour>
      <point x="157" y="-360" type="line"/>
      <point x="351" y="-360" type="line"/>
      <point x="338" y="684" type="line"/>
      <point x="170" y="684" type="line"/>
    </contour>
    <contour>
      <point x="249" y="889" type="curve" smooth="yes"/>
      <point x="321" y="889"/>
      <point x="358" y="936"/>
      <point x="358" y="996" type="curve" smooth="yes"/>
      <point x="358" y="1056"/>
      <point x="321" y="1101"/>
      <point x="249" y="1101" type="curve" smooth="yes"/>
      <point x="177" y="1101"/>
      <point x="139" y="1056"/>
      <point x="139" y="996" type="curve" smooth="yes"/>
      <point x="139" y="936"/>
      <point x="177" y="889"/>
    </contour>
  </outline>
</glyph>
<glyph name="paragraph" format="2">
  <advance width="1001"/>
  <unicode hex="00B6"/>
  <note>
uni00B6
</note>
  <outline>
    <contour>
      <point x="646" y="0" type="line"/>
      <point x="832" y="0" type="line"/>
      <point x="832" y="1456" type="line"/>
      <point x="563" y="1456" type="line" smooth="yes"/>
      <point x="256.333" y="1456"/>
      <point x="67" y="1272"/>
      <point x="67" y="988" type="curve" smooth="yes"/>
      <point x="67" y="702.667"/>
      <point x="255.333" y="520"/>
      <point x="562" y="520" type="curve" smooth="yes"/>
      <point x="646" y="520" type="line"/>
    </contour>
  </outline>
</glyph>
<glyph name="Eth" format="2">
  <advance width="1373"/>
  <unicode hex="00D0"/>
  <note>
uni00D0
</note>
  <outline>
    <contour>
      <point x="199" y="0" type="line"/>
      <point x="602" y="0" type="line" smooth="yes"/>
      <point x="1119.696" y="4.742"/>
      <point x="1252" y="514"/>
      <point x="1252" y="684" type="curve" smooth="yes"/>
      <point x="1252" y="777" type="line" smooth="yes"/>
      <point x="1250" y="1041"/>
      <point x="1131" y="1211"/>
      <point x="991" y="1316" type="curve" smooth="yes"/>
      <point x="855" y="1417"/>
      <point x="698" y="1456"/>
      <point x="610" y="1456" type="curve" smooth="yes"/>
      <point x="199" y="1456" type="line"/>
      <point x="199" y="817" type="line"/>
      <point x="7" y="817" type="line"/>
      <point x="7" y="666" type="line"/>
      <point x="199" y="666" type="line"/>
    </contour>
    <contour>
      <point x="391" y="157" type="line"/>
      <point x="391" y="666" type="line"/>
      <point x="643" y="666" type="line"/>
      <point x="643" y="817" type="line"/>
      <point x="391" y="817" type="line"/>
      <point x="391" y="1298" type="line"/>
      <point x="615" y="1298" type="line" smooth="yes"/>
      <point x="900.333" y="1295.333"/>
      <point x="1062" y="1103.667"/>
      <point x="1062" y="773" type="curve" smooth="yes"/>
      <point x="1062" y="680" type="line" smooth="yes"/>
      <point x="1060.667" y="348"/>
      <point x="888" y="157"/>
      <point x="592" y="157" type="curve" smooth="yes"/>
    </contour>
  </outline>
</glyph>
<glyph name="divide" format="2">
  <advance width="1169"/>
  <unicode hex="00F7"/>
  <note>
uni00F7
</note>
  <outline>
    <contour>
      <point x="71" y="600" type="line"/>
      <point x="1069" y="600" type="line"/>
      <point x="1069" y="784" type="line"/>
      <point x="71" y="784" type="line"/>
    </contour>
    <contour>
      <point x="575" y="172" type="curve" smooth="yes"/>
      <point x="651" y="172"/>
      <point x="691" y="219.667"/>
      <point x="691" y="281" type="curve" smooth="yes"/>
      <point x="691" y="345"/>
      <point x="651" y="393"/>
      <point x="575" y="393" type="curve" smooth="yes"/>
      <point x="499" y="393"/>
      <point x="461" y="345"/>
      <point x="461" y="281" type="curve" smooth="yes"/>
      <point x="461" y="219.667"/>
      <point x="499" y="172"/>
    </contour>
    <contour>
      <point x="575" y="989" type="curve" smooth="yes"/>
      <point x="651" y="989"/>
      <point x="691" y="1035.333"/>
      <point x="691" y="1098" type="curve" smooth="yes"/>
      <point x="691" y="1162"/>
      <point x="651" y="1210"/>
      <point x="575" y="1210" type="curve" smooth="yes"/>
      <point x="499" y="1210"/>
      <point x="461" y="1162"/>
      <point x="461" y="1098" type="curve" smooth="yes"/>
      <point x="461" y="1035.333"/>
      <point x="499" y="989"/>
    </contour>
  </outline>
</glyph>
<glyph name="thorn" format="2">
  <advance width="1180"/>
  <unicode hex="00FE"/>
  <note>
uni00FE
</note>
  <outline>
    <contour>
      <point x="149" y="-416" type="line"/>
      <point x="334" y="-416" type="line"/>
      <point x="334" y="105" type="line"/>
      <point x="409.333" y="21.667"/>
      <point x="512.667" y="-20"/>
      <point x="644" y="-20" type="curve" smooth="yes"/>
      <point x="901.333" y="-20"/>
      <point x="1063" y="199.667"/>
      <point x="1063" y="529" type="curve" smooth="yes"/>
      <point x="1063" y="546" type="line" smooth="yes"/>
      <point x="1063" y="895.333"/>
      <point x="901" y="1102"/>
      <point x="641" y="1102" type="curve" smooth="yes"/>
      <point x="511.667" y="1102"/>
      <point x="409.333" y="1058"/>
      <point x="334" y="970" type="curve"/>
      <point x="334" y="1536" type="line"/>
      <point x="149" y="1536" type="line"/>
    </contour>
    <contour>
      <point x="588" y="131" type="curve" smooth="yes"/>
      <point x="474" y="131"/>
      <point x="389.333" y="180.333"/>
      <point x="334" y="279" type="curve"/>
      <point x="334" y="796" type="line"/>
      <point x="390" y="895.333"/>
      <point x="474" y="945"/>
      <point x="586" y="945" type="curve" smooth="yes"/>
      <point x="767.333" y="945"/>
      <point x="878" y="794"/>
      <point x="878" y="550" type="curve" smooth="yes"/>
      <point x="878" y="272.667"/>
      <point x="765.333" y="131"/>
    </contour>
  </outline>
</glyph>
<glyph name="circumflex" format="2">
  <advance width="964"/>
  <unicode hex="02C6"/>
  <note>
uni02C6
</note>
  <outline>
    <contour>
      <point x="169" y="1252" type="line"/>
      <point x="322" y="1252" type="line"/>
      <point x="471" y="1422" type="line"/>
      <point x="621" y="1252" type="line"/>
      <point x="774" y="1252" type="line"/>
      <point x="774" y="1262" type="line"/>
      <point x="527" y="1536" type="line"/>
      <point x="415" y="1536" type="line"/>
      <point x="169" y="1264" type="line"/>
    </contour>
  </outline>
</glyph>
<glyph name="comma-ethiopic" format="2">
  <advance width="556"/>
  <unicode hex="1363"/>
  <outline>
    <contour>
      <point x="98" y="902" type="line"/>
      <point x="437" y="902" type="line"/>
      <point x="437" y="1029" type="line"/>
      <point x="98" y="1029" type="line"/>
    </contour>
    <component base="period" xOffset="20" yOffset="145"/>
    <component base="period" xOffset="21" yOffset="582"/>
  </outline>
</glyph>
<glyph name="semicolon-ethiopic" format="2">
  <advance width="556"/>
  <unicode hex="1364"/>
  <outline>
    <contour>
      <point x="98" y="945" type="line"/>
      <point x="428" y="945" type="line"/>
      <point x="428" y="1083" type="line"/>
      <point x="98" y="1083" type="line"/>
    </contour>
    <contour>
      <point x="150" y="-42" type="line"/>
      <point x="454" y="-42" type="line"/>
      <point x="454" y="96" type="line"/>
      <point x="150" y="96" type="line"/>
    </contour>
    <component base="period" xOffset="21" yOffset="644"/>
    <component base="period" xOffset="20" yOffset="217"/>
  </outline>
</glyph>
<glyph name="colon-ethiopic" format="2">
  <advance width="556"/>
  <unicode hex="1365"/>
  <outline>
    <contour>
      <point x="154" y="512" type="line"/>
      <point x="453" y="512" type="line"/>
      <point x="453" y="641" type="line"/>
      <point x="154" y="641" type="line"/>
    </contour>
    <component base="period" xOffset="20" yOffset="140"/>
    <component base="period" xOffset="21" yOffset="819"/>
  </outline>
</glyph>
<glyph name="prefacecolon-ethiopic" format="2">
  <advance width="730"/>
  <unicode hex="1366"/>
  <outline>
    <contour>
      <point x="333" y="547" type="line"/>
      <point x="613" y="547" type="line"/>
      <point x="613" y="665" type="line"/>
      <point x="333" y="665" type="line"/>
    </contour>
    <component base="period" xOffset="20" yOffset="182"/>
    <component base="period" xOffset="1" yOffset="769"/>
  </outline>
</glyph>
<glyph name="paragraphseparator-ethiopic" format="2">
  <advance width="1337"/>
  <unicode hex="1368"/>
  <outline>
    <contour>
      <point x="644" y="439" type="curve" smooth="yes"/>
      <point x="711" y="439"/>
      <point x="768" y="494"/>
      <point x="768" y="562" type="curve" smooth="yes"/>
      <point x="768" y="629"/>
      <point x="711" y="686"/>
      <point x="644" y="686" type="curve" smooth="yes"/>
      <point x="576" y="686"/>
      <point x="521" y="629"/>
      <point x="521" y="562" type="curve" smooth="yes"/>
      <point x="521" y="494"/>
      <point x="576" y="439"/>
    </contour>
    <contour>
      <point x="400" y="168" type="curve" smooth="yes"/>
      <point x="449" y="209"/>
      <point x="460" y="270"/>
      <point x="411" y="329" type="curve" smooth="yes"/>
      <point x="362" y="387"/>
      <point x="301" y="385"/>
      <point x="252" y="344" type="curve" smooth="yes"/>
      <point x="205" y="305"/>
      <point x="194" y="246"/>
      <point x="242" y="187" type="curve" smooth="yes"/>
      <point x="291" y="129"/>
      <point x="353" y="128"/>
    </contour>
    <contour>
      <point x="664" y="-11" type="curve" smooth="yes"/>
      <point x="740" y="-11"/>
      <point x="780" y="36"/>
      <point x="780" y="97" type="curve" smooth="yes"/>
      <point x="780" y="161"/>
      <point x="740" y="209"/>
      <point x="664" y="209" type="curve" smooth="yes"/>
      <point x="588" y="209"/>
      <point x="550" y="161"/>
      <point x="550" y="97" type="curve" smooth="yes"/>
      <point x="550" y="36"/>
      <point x="588" y="-11"/>
    </contour>
    <contour>
      <point x="223" y="655" type="curve" smooth="yes"/>
      <point x="278" y="624"/>
      <point x="340" y="636"/>
      <point x="377" y="702" type="curve" smooth="yes"/>
      <point x="414" y="768"/>
      <point x="390" y="825"/>
      <point x="334" y="856" type="curve" smooth="yes"/>
      <point x="280" y="886"/>
      <point x="221" y="875"/>
      <point x="184" y="809" type="curve" smooth="yes"/>
      <point x="147" y="742"/>
      <point x="169" y="685"/>
    </contour>
    <contour>
      <point x="995" y="226" type="curve" smooth="yes"/>
      <point x="1050" y="195"/>
      <point x="1112" y="207"/>
      <point x="1149" y="273" type="curve" smooth="yes"/>
      <point x="1186" y="339"/>
      <point x="1162" y="396"/>
      <point x="1106" y="427" type="curve" smooth="yes"/>
      <point x="1052" y="457"/>
      <point x="993" y="446"/>
      <point x="956" y="380" type="curve" smooth="yes"/>
      <point x="919" y="313"/>
      <point x="941" y="256"/>
    </contour>
    <contour>
      <point x="665" y="872" type="curve" smooth="yes"/>
      <point x="741" y="872"/>
      <point x="781" y="919"/>
      <point x="781" y="980" type="curve" smooth="yes"/>
      <point x="781" y="1044"/>
      <point x="741" y="1092"/>
      <point x="665" y="1092" type="curve" smooth="yes"/>
      <point x="589" y="1092"/>
      <point x="551" y="1044"/>
      <point x="551" y="980" type="curve" smooth="yes"/>
      <point x="551" y="919"/>
      <point x="589" y="872"/>
    </contour>
    <contour>
      <point x="1077" y="734" type="curve" smooth="yes"/>
      <point x="1126" y="775"/>
      <point x="1137" y="836"/>
      <point x="1088" y="895" type="curve" smooth="yes"/>
      <point x="1039" y="953"/>
      <point x="978" y="951"/>
      <point x="929" y="910" type="curve" smooth="yes"/>
      <point x="882" y="871"/>
      <point x="871" y="812"/>
      <point x="919" y="753" type="curve" smooth="yes"/>
      <point x="968" y="695"/>
      <point x="1030" y="694"/>
    </contour>
  </outline>
</glyph>
<glyph name="three-ethiopic" format="2">
  <advance width="1150"/>
  <unicode hex="136B"/>
  <outline>
    <contour>
      <point x="89" y="-40" type="line"/>
      <point x="285" y="-40" type="line"/>
      <point x="285" y="1264" type="line"/>
      <point x="1073" y="1264" type="line"/>
      <point x="1073" y="1416" type="line"/>
      <point x="89" y="1416" type="line"/>
    </contour>
    <component base="_num.bar"/>
  </outline>
</glyph>
<glyph name="nine-ethiopic" format="2">
  <advance width="1357"/>
  <unicode hex="1371"/>
  <outline>
    <contour>
      <point x="636" y="-60" type="curve" smooth="yes"/>
      <point x="951" y="-60"/>
      <point x="1094" y="148"/>
      <point x="1094" y="581" type="curve" smooth="yes"/>
      <point x="1094" y="821" type="line" smooth="yes"/>
      <point x="1091" y="1092"/>
      <point x="1031" y="1270"/>
      <point x="903" y="1362" type="curve"/>
      <point x="806" y="1223" type="line"/>
      <point x="858.436" y="1172.779"/>
      <point x="889.6" y="1090.923"/>
      <point x="902.312" y="973" type="curve"/>
      <point x="367.035" y="973" type="line"/>
      <point x="380.838" y="1096.438"/>
      <point x="415.154" y="1182.325"/>
      <point x="474" y="1232" type="curve"/>
      <point x="355" y="1353" type="line"/>
      <point x="232" y="1256"/>
      <point x="175" y="1074"/>
      <point x="175" y="803" type="curve" smooth="yes"/>
      <point x="175" y="556" type="line" smooth="yes"/>
      <point x="180" y="147"/>
      <point x="325" y="-60"/>
    </contour>
    <contour>
      <point x="636" y="91" type="curve" smooth="yes"/>
      <point x="451" y="91"/>
      <point x="360" y="237"/>
      <point x="360" y="552" type="curve" smooth="yes"/>
      <point x="360" y="822" type="line"/>
      <point x="909" y="822" type="line"/>
      <point x="909" y="531" type="line" smooth="yes"/>
      <point x="905" y="227"/>
      <point x="819" y="91"/>
    </contour>
    <component base="_num.bar" xOffset="115"/>
  </outline>
</glyph>
<glyph name="ten-ethiopic" format="2">
  <advance width="1150"/>
  <unicode hex="1372"/>
  <outline>
    <contour>
      <point x="543" y="0" type="line"/>
      <point x="729" y="0" type="line"/>
      <point x="729" y="1463" type="line"/>
      <point x="700" y="1463" type="line"/>
      <point x="543" y="1233" type="line"/>
    </contour>
    <component base="_num.bar"/>
  </outline>
</glyph>
<glyph name="thirty-ethiopic" format="2">
  <advance width="1353"/>
  <unicode hex="1374"/>
  <outline>
    <contour>
      <point x="203" y="-40" type="line"/>
      <point x="399" y="-40" type="line"/>
      <point x="399" y="1264" type="line"/>
      <point x="603" y="1264" type="line"/>
      <point x="603" y="-40" type="line"/>
      <point x="943" y="-40" type="line" smooth="yes"/>
      <point x="1061" y="-40"/>
      <point x="1147" y="46"/>
      <point x="1147" y="164" type="curve" smooth="yes"/>
      <point x="1147" y="1416" type="line"/>
      <point x="951" y="1416" type="line"/>
      <point x="951" y="112" type="line"/>
      <point x="780" y="112" type="line"/>
      <point x="780" y="1415" type="line"/>
      <point x="407" y="1415" type="line" smooth="yes"/>
      <point x="289" y="1416"/>
      <point x="203" y="1330"/>
      <point x="203" y="1212" type="curve" smooth="yes"/>
    </contour>
    <component base="_num.bar" xOffset="94"/>
  </outline>
</glyph>
<glyph name="quotereversed" format="2">
  <advance width="409"/>
  <unicode hex="201B"/>
  <note>
uni201B
</note>
  <outline>
    <contour>
      <point x="253" y="1046" type="curve"/>
      <point x="359" y="1118" type="line"/>
      <point x="297" y="1202.667"/>
      <point x="264.667" y="1293"/>
      <point x="262" y="1389" type="curve" smooth="yes"/>
      <point x="262" y="1536" type="line"/>
      <point x="79" y="1536" type="line"/>
      <point x="79" y="1401" type="line" smooth="yes"/>
      <point x="81.667" y="1271.667"/>
      <point x="150.333" y="1131.333"/>
    </contour>
  </outline>
</glyph>
<glyph name="quotedblbase" format="2">
  <advance width="705"/>
  <unicode hex="201E"/>
  <note>
uni201E
</note>
  <outline>
    <contour>
      <point x="437" y="-301" type="line"/>
      <point x="541" y="-211.667"/>
      <point x="612" y="-60.667"/>
      <point x="612" y="82" type="curve" smooth="yes"/>
      <point x="612" y="246" type="line"/>
      <point x="426" y="246" type="line"/>
      <point x="426" y="61" type="line" smooth="yes"/>
      <point x="424" y="-41"/>
      <point x="392.667" y="-137.667"/>
      <point x="332" y="-229" type="curve"/>
    </contour>
    <contour>
      <point x="141" y="-301" type="line"/>
      <point x="241" y="-215.667"/>
      <point x="315" y="-62"/>
      <point x="315" y="82" type="curve" smooth="yes"/>
      <point x="315" y="246" type="line"/>
      <point x="130" y="246" type="line"/>
      <point x="130" y="61" type="line" smooth="yes"/>
      <point x="128" y="-41"/>
      <point x="96.667" y="-137.667"/>
      <point x="36" y="-229" type="curve"/>
    </contour>
  </outline>
</glyph>
<glyph name="hyphenationpoint" format="2">
  <advance width="382"/>
  <unicode hex="2027"/>
  <note>
uni2027
</note>
  <outline>
    <contour>
      <point x="190" y="514" type="curve" smooth="yes"/>
      <point x="262" y="514"/>
      <point x="300" y="559"/>
      <point x="300" y="619" type="curve" smooth="yes"/>
      <point x="300" y="679"/>
      <point x="262" y="725"/>
      <point x="190" y="725" type="curve" smooth="yes"/>
      <point x="118" y="725"/>
      <point x="82" y="679"/>
      <point x="82" y="619" type="curve" smooth="yes"/>
      <point x="82" y="559"/>
      <point x="118" y="514"/>
    </contour>
  </outline>
</glyph>
<glyph name="partialdiff" format="2">
  <advance width="1167"/>
  <unicode hex="2202"/>
  <note>
uni2202
</note>
  <outline>
    <contour>
      <point x="588" y="-21" type="curve" smooth="yes"/>
      <point x="780" y="-21"/>
      <point x="934" y="94.333"/>
      <point x="1014" y="293" type="curve" smooth="yes"/>
      <point x="1054" y="392.333"/>
      <point x="1074" y="504.667"/>
      <point x="1074" y="680" type="curve" smooth="yes"/>
      <point x="1074" y="922"/>
      <point x="1033" y="1116"/>
      <point x="956" y="1256" type="curve" smooth="yes"/>
      <point x="863" y="1426"/>
      <point x="716" y="1516"/>
      <point x="524" y="1516" type="curve" smooth="yes"/>
      <point x="423.333" y="1516"/>
      <point x="334.333" y="1500"/>
      <point x="208" y="1447" type="curve"/>
      <point x="224" y="1296" type="line"/>
      <point x="327.333" y="1335.333"/>
      <point x="422" y="1355"/>
      <point x="508" y="1355" type="curve" smooth="yes"/>
      <point x="636" y="1355"/>
      <point x="752.5" y="1270.167"/>
      <point x="822.5" y="1125.5" type="curve" smooth="yes"/>
      <point x="857.5" y="1053.167"/>
      <point x="879.667" y="970.333"/>
      <point x="889" y="877" type="curve"/>
      <point x="811.667" y="967.667"/>
      <point x="696" y="1022"/>
      <point x="572" y="1022" type="curve" smooth="yes"/>
      <point x="292" y="1022"/>
      <point x="106" y="823.333"/>
      <point x="106" y="516" type="curve" smooth="yes"/>
      <point x="106" y="188"/>
      <point x="297.333" y="-21"/>
    </contour>
    <contour>
      <point x="588" y="130" type="curve" smooth="yes"/>
      <point x="404" y="130"/>
      <point x="291" y="280.333"/>
      <point x="291" y="523" type="curve" smooth="yes"/>
      <point x="291" y="736.333"/>
      <point x="403.333" y="870"/>
      <point x="590" y="870" type="curve" smooth="yes"/>
      <point x="732.667" y="870"/>
      <point x="847.667" y="794"/>
      <point x="885" y="674" type="curve"/>
      <point x="889" y="598" type="line" smooth="yes"/>
      <point x="889" y="306"/>
      <point x="777.333" y="130"/>
    </contour>
  </outline>
</glyph>
<glyph name="_smart.fa" format="2">
  <anchor x="433" y="54" name="_fa"/>
  <outline>
    <contour>
      <point x="287" y="551" type="line"/>
      <point x="42" y="551" type="line"/>
      <point x="74" y="460" type="line"/>
      <point x="162" y="460" type="line"/>
      <point x="305" y="55" type="line"/>
      <point x="461" y="55" type="line"/>
    </contour>
  </outline>
</glyph>
<glyph name="_smart.hee" format="2">
  <anchor x="-79" y="339" name="_hee"/>
  <outline>
    <contour>
      <point x="-177" y="-156" type="curve" smooth="yes"/>
      <point x="-12" y="-156"/>
      <point x="109" y="-37"/>
      <point x="109" y="120" type="curve" smooth="yes"/>
      <point x="109" y="280"/>
      <point x="-15" y="402"/>
      <point x="-177" y="402" type="curve" smooth="yes"/>
      <point x="-344" y="402"/>
      <point x="-470" y="277"/>
      <point x="-470" y="120" type="curve" smooth="yes"/>
      <point x="-470" y="-35"/>
      <point x="-348" y="-156"/>
    </contour>
    <contour>
      <point x="-132" y="-126" type="curve" smooth="yes"/>
      <point x="-230" y="-121"/>
      <point x="-331" y="-62"/>
      <point x="-331" y="65" type="curve" smooth="yes"/>
      <point x="-331" y="171"/>
      <point x="-243" y="266"/>
      <point x="-127" y="266" type="curve" smooth="yes"/>
      <point x="-17" y="266"/>
      <point x="67" y="177"/>
      <point x="67" y="65" type="curve" smooth="yes"/>
      <point x="67" y="-61"/>
      <point x="-31" y="-131"/>
    </contour>
  </outline>
</glyph>
<glyph name="_smart.ho.ring.uniq" format="2">
  <anchor x="-1080" y="-63" name="_ho.ring.uniq"/>
  <outline>
    <contour>
      <point x="-743" y="-371" type="curve" smooth="yes"/>
      <point x="-581" y="-342"/>
      <point x="-482" y="-204"/>
      <point x="-510" y="-49" type="curve" smooth="yes"/>
      <point x="-537" y="108"/>
      <point x="-681" y="207"/>
      <point x="-840" y="179" type="curve" smooth="yes"/>
      <point x="-1005" y="150"/>
      <point x="-1107" y="5"/>
      <point x="-1080" y="-150" type="curve" smooth="yes"/>
      <point x="-1053" y="-303"/>
      <point x="-912" y="-401"/>
    </contour>
    <contour>
      <point x="-685" y="-302" type="curve" smooth="yes"/>
      <point x="-765" y="-324"/>
      <point x="-862" y="-293"/>
      <point x="-891" y="-189" type="curve" smooth="yes"/>
      <point x="-914" y="-102"/>
      <point x="-863" y="-4"/>
      <point x="-767" y="22" type="curve" smooth="yes"/>
      <point x="-677" y="45"/>
      <point x="-589" y="-10"/>
      <point x="-563" y="-101" type="curve" smooth="yes"/>
      <point x="-535" y="-205"/>
      <point x="-602" y="-278"/>
    </contour>
  </outline>
</glyph>
<glyph name="_smart.hu" format="2">
  <anchor x="-4" y="967" name="_hu"/>
  <outline>
    <contour>
      <point x="119" y="813" type="curve" smooth="yes"/>
      <point x="186" y="813"/>
      <point x="243" y="868"/>
      <point x="243" y="936" type="curve" smooth="yes"/>
      <point x="243" y="1003"/>
      <point x="186" y="1060"/>
      <point x="119" y="1060" type="curve" smooth="yes"/>
      <point x="51" y="1060"/>
      <point x="-4" y="1003"/>
      <point x="-4" y="936" type="curve" smooth="yes"/>
      <point x="-4" y="868"/>
      <point x="51" y="813"/>
    </contour>
  </outline>
</glyph>
<glyph name="_smart.hwa" format="2">
  <anchor x="0" y="368" name="_hwa"/>
  <outline>
    <contour>
      <point x="-391" y="40" type="line"/>
      <point x="119" y="40" type="line"/>
      <point x="119" y="-77" type="line"/>
      <point x="249" y="-77" type="line"/>
      <point x="249" y="171" type="line"/>
      <point x="90" y="171" type="line"/>
      <point x="90" y="364" type="line"/>
      <point x="-95" y="364" type="line"/>
      <point x="-95" y="171" type="line"/>
      <point x="-391" y="171" type="line"/>
    </contour>
  </outline>
</glyph>
<glyph name="_smart.neck" format="2">
  <anchor x="1" y="-24" name="_neck"/>
  <outline>
    <contour>
      <point x="-81" y="-24" type="line"/>
      <point x="88" y="-24" type="line"/>
      <point x="88" y="340" type="line"/>
      <point x="-81" y="340" type="line"/>
    </contour>
  </outline>
</glyph>
<glyph name="_smart.raa.cap" format="2">
  <anchor x="994" y="231" name="_raa.cap"/>
  <outline>
    <contour>
      <point x="667" y="229" type="line"/>
      <point x="816" y="229" type="line"/>
      <point x="1084" y="523" type="line"/>
      <point x="860" y="523" type="line"/>
    </contour>
  </outline>
</glyph>
<glyph name="_smart.ri.cap" format="2">
  <anchor x="994" y="231" name="_ri.cap"/>
  <outline>
    <contour>
      <point x="1084" y="229" type="line"/>
      <point x="891" y="523" type="line"/>
      <point x="667" y="523" type="line"/>
      <point x="935" y="229" type="line"/>
    </contour>
  </outline>
</glyph>
<glyph name="_smart.ri" format="2">
  <anchor x="-101" y="260" name="_ri"/>
  <outline>
    <contour>
      <point x="-80" y="332" type="line"/>
      <point x="-80" y="614" type="line"/>
      <point x="-336" y="614" type="line"/>
      <point x="-336" y="450" type="line"/>
      <point x="-179" y="450" type="line"/>
      <point x="-179" y="332" type="line"/>
    </contour>
  </outline>
</glyph>
<glyph name="_smart.ye.extend" format="2">
  <anchor x="436" y="-45" name="_haa.acute"/>
  <anchor x="140" y="0" name="_ye.extend"/>
  <outline>
    <contour>
      <point x="287" y="0" type="line"/>
      <point x="287" y="-290" type="line"/>
      <point x="475" y="-290" type="line"/>
      <point x="475" y="0" type="line"/>
    </contour>
  </outline>
</glyph>
<glyph name="_smart.yee" format="2">
  <anchor x="0" y="441" name="_yee"/>
  <outline>
    <contour>
      <point x="294" y="21" type="curve" smooth="yes"/>
      <point x="437" y="21"/>
      <point x="542" y="124"/>
      <point x="542" y="260" type="curve" smooth="yes"/>
      <point x="542" y="399"/>
      <point x="434" y="505"/>
      <point x="294" y="505" type="curve" smooth="yes"/>
      <point x="149" y="505"/>
      <point x="39" y="397"/>
      <point x="39" y="260" type="curve" smooth="yes"/>
      <point x="39" y="126"/>
      <point x="145" y="21"/>
    </contour>
    <contour>
      <point x="333" y="47" type="curve" smooth="yes"/>
      <point x="248" y="51"/>
      <point x="160" y="102"/>
      <point x="160" y="213" type="curve" smooth="yes"/>
      <point x="160" y="305"/>
      <point x="236" y="387"/>
      <point x="337" y="387" type="curve" smooth="yes"/>
      <point x="432" y="387"/>
      <point x="505" y="310"/>
      <point x="505" y="213" type="curve" smooth="yes"/>
      <point x="505" y="103"/>
      <point x="420" y="42"/>
    </contour>
  </outline>
</glyph>
<glyph name="_smart.yu" format="2">
  <anchor x="149" y="726" name="_yu"/>
  <outline>
    <contour>
      <point x="168" y="671" type="line"/>
      <point x="603" y="671" type="line"/>
      <point x="603" y="822" type="line"/>
      <point x="168" y="822" type="line"/>
    </contour>
    <contour>
      <point x="428" y="571" type="line"/>
      <point x="863" y="571" type="line"/>
      <point x="863" y="722" type="line"/>
      <point x="428" y="722" type="line"/>
    </contour>
  </outline>
</glyph>
<glyph name="acute.yu" format="2">
  <advance width="1052"/>
  <outline>
    <contour>
      <point x="177" y="378" type="line"/>
      <point x="262" y="256" type="line"/>
      <point x="657" y="205" type="line"/>
      <point x="528" y="388" type="line"/>
    </contour>
  </outline>
</glyph>
<glyph name="fi.liga" format="2">
  <advance width="1134"/>
  <note>
uniFB01
</note>
  <outline>
    <contour>
      <point x="202" y="0" type="line"/>
      <point x="388" y="0" type="line"/>
      <point x="388" y="939" type="line"/>
      <point x="609" y="939" type="line"/>
      <point x="609" y="1082" type="line"/>
      <point x="388" y="1082" type="line"/>
      <point x="388" y="1176" type="line" smooth="yes"/>
      <point x="388" y="1318.667"/>
      <point x="453.333" y="1390"/>
      <point x="612" y="1390" type="curve" smooth="yes"/>
      <point x="687.333" y="1390"/>
      <point x="766.667" y="1373.333"/>
      <point x="850" y="1340" type="curve"/>
      <point x="881" y="1496" type="line"/>
      <point x="767" y="1536.667"/>
      <point x="672.667" y="1557"/>
      <point x="598" y="1557" type="curve" smooth="yes"/>
      <point x="346" y="1557"/>
      <point x="202" y="1415.333"/>
      <point x="202" y="1174" type="curve" smooth="yes"/>
      <point x="202" y="1082" type="line"/>
      <point x="31" y="1082" type="line"/>
      <point x="31" y="939" type="line"/>
      <point x="202" y="939" type="line"/>
    </contour>
    <contour>
      <point x="787" y="0" type="line"/>
      <point x="973" y="0" type="line"/>
      <point x="973" y="1082" type="line"/>
      <point x="787" y="1082" type="line"/>
    </contour>
  </outline>
</glyph>
<glyph name="ga.base" format="2">
  <advance width="957"/>
  <anchor x="874" y="10" name="haa"/>
  <anchor x="642" y="-31" name="haa.acute"/>
  <anchor x="340" y="1367" name="hat"/>
  <anchor x="282" y="1316" name="hat.left"/>
  <anchor x="606" y="592" name="he.left.outer"/>
  <anchor x="702" y="40" name="hee"/>
  <anchor x="770" y="110" name="hi"/>
  <anchor x="363" y="696" name="ho.ring"/>
  <anchor x="772" y="638" name="hu"/>
  <anchor x="684" y="0" name="hwa"/>
  <anchor x="376" y="1072" name="neck"/>
  <anchor x="212" y="1108" name="neck.left"/>
  <anchor x="66" y="1315" name="nose"/>
  <anchor x="32" y="1105" name="nose.extend"/>
  <anchor x="412" y="1030" name="ring"/>
  <anchor x="491" y="1" name="xwaa"/>
  <outline>
    <contour>
      <point x="582" y="0" type="line"/>
      <point x="768" y="0" type="line"/>
      <point x="768" y="558" type="line" smooth="yes"/>
      <point x="768" y="895"/>
      <point x="637" y="1102"/>
      <point x="386" y="1102" type="curve" smooth="yes"/>
      <point x="90" y="1102" type="line"/>
      <point x="90" y="961" type="line"/>
      <point x="386" y="961" type="line"/>
      <point x="558" y="949"/>
      <point x="582" y="812"/>
      <point x="582" y="565" type="curve" smooth="yes"/>
    </contour>
  </outline>
</glyph>
<glyph name="hha.base.cap" format="2">
  <advance width="1788"/>
  <anchor x="866" y="85" name="cha.caps"/>
  <anchor x="1556" y="-50" name="haa"/>
  <anchor x="1085" y="6" name="haa.acute"/>
  <anchor x="706" y="1420" name="he.acute.top"/>
  <anchor x="1483" y="54" name="hee"/>
  <anchor x="1623" y="110" name="hi"/>
  <anchor x="253" y="-48" name="ho"/>
  <anchor x="1621" y="1081" name="hu"/>
  <anchor x="1524" y="-48" name="hwa"/>
  <anchor x="970" y="802" name="neck.hha.caps"/>
  <outline>
    <contour>
      <point x="169" y="0" type="line"/>
      <point x="361" y="0" type="line"/>
      <point x="342" y="1176" type="line"/>
      <point x="819" y="0" type="line"/>
      <point x="966" y="0" type="line"/>
      <point x="1444" y="1179" type="line"/>
      <point x="1426" y="0" type="line"/>
      <point x="1618" y="0" type="line"/>
      <point x="1618" y="1456" type="line"/>
      <point x="1369" y="1456" type="line"/>
      <point x="893" y="268" type="line"/>
      <point x="417" y="1456" type="line"/>
      <point x="169" y="1456" type="line"/>
    </contour>
  </outline>
</glyph>
<glyph name="pa.base" format="2">
  <advance width="784"/>
  <anchor x="600" y="92" name="haa"/>
  <anchor x="350" y="-10" name="haa.acute"/>
  <anchor x="362" y="1339" name="hat"/>
  <anchor x="355" y="1167" name="he.acute.top"/>
  <anchor x="281" y="101" name="he.left.outer"/>
  <anchor x="411" y="40" name="hee"/>
  <anchor x="484" y="110" name="hi"/>
  <anchor x="629" y="1274" name="ho.ring"/>
  <anchor x="473" y="669" name="hu"/>
  <anchor x="381" y="-10" name="hwa"/>
  <anchor x="373" y="1082" name="neck"/>
  <outline>
    <contour>
      <point x="286" y="0" type="line"/>
      <point x="471" y="0" type="line"/>
      <point x="471" y="939" type="line"/>
      <point x="713" y="939" type="line"/>
      <point x="713" y="1082" type="line"/>
      <point x="49" y="1082" type="line"/>
      <point x="49" y="939" type="line"/>
      <point x="286" y="939" type="line"/>
    </contour>
  </outline>
</glyph>
<glyph name="paa-ethiopic.liga" format="2">
  <advance width="1222"/>
  <anchor x="577.172" y="90.586" name="_haa.acute"/>
  <anchor x="788" y="15" name="haa"/>
  <anchor x="589" y="16" name="haa.acute"/>
  <anchor x="873" y="1636" name="hat.caps"/>
  <anchor x="579" y="1511" name="he.acute.top"/>
  <anchor x="644" y="52" name="hee"/>
  <anchor x="699" y="114" name="hi"/>
  <anchor x="868" y="1561" name="ho.ring"/>
  <anchor x="708" y="983" name="hu"/>
  <anchor x="616" y="-52" name="hwa"/>
  <anchor x="601" y="1532" name="neck.caps"/>
  <outline>
    <contour>
      <point x="125" y="105" type="line"/>
      <point x="205" y="0" type="line"/>
      <point x="663" y="0" type="line" name="❌"/>
      <point x="529" y="105" type="line" name="❌"/>
    </contour>
    <component base="pa.base.cap"/>
  </outline>
</glyph>
<glyph name="ra.base.cap" format="2">
  <advance width="1102"/>
  <anchor x="662" y="151" name="fa"/>
  <anchor x="746" y="3" name="haa"/>
  <anchor x="673" y="-5" name="haa.acute"/>
  <anchor x="316" y="1360" name="hat.left"/>
  <anchor x="1072" y="80" name="hee"/>
  <anchor x="992" y="245" name="raa.cap"/>
  <anchor x="917" y="304" name="ri.cap"/>
  <outline>
    <contour>
      <point x="169" y="0" type="line"/>
      <point x="1052" y="0" type="line"/>
      <point x="1052" y="157" type="line"/>
      <point x="362" y="157" type="line"/>
      <point x="362" y="1456" type="line"/>
      <point x="169" y="1456" type="line"/>
    </contour>
  </outline>
</glyph>
<glyph name="ra.base" format="2">
  <advance width="1115"/>
  <anchor x="836" y="101" name="fa"/>
  <anchor x="757" y="-43" name="haa"/>
  <anchor x="742" y="-70" name="haa.acute"/>
  <anchor x="627" y="960" name="hat"/>
  <anchor x="360" y="1040" name="hat.left"/>
  <anchor x="952" y="19" name="hee"/>
  <anchor x="1061" y="940" name="ho.ring"/>
  <anchor x="633" y="-130" name="hu"/>
  <anchor x="709" y="34" name="hwa"/>
  <anchor x="996.024" y="305" name="ra"/>
  <anchor x="768" y="241" name="raa"/>
  <anchor x="1066" y="114" name="ri"/>
  <outline>
    <contour>
      <point x="582" y="-20" type="curve"/>
      <point x="1065" y="-15" type="line"/>
      <point x="1065" y="125" type="line"/>
      <point x="582" y="125" type="line"/>
      <point x="431" y="131"/>
      <point x="385" y="255"/>
      <point x="385" y="517" type="curve" smooth="yes"/>
      <point x="385" y="1082" type="line"/>
      <point x="200" y="1082" type="line"/>
      <point x="200" y="524" type="line" smooth="yes"/>
      <point x="200" y="187"/>
      <point x="289" y="-20"/>
    </contour>
  </outline>
</glyph>
<glyph name="sa.base" format="2">
  <advance width="1893"/>
  <anchor x="1548" y="-40" name="haa"/>
  <anchor x="875" y="-94" name="he.acute.bottom"/>
  <anchor x="1564" y="0" name="hee"/>
  <anchor x="1615" y="-281" name="hi"/>
  <anchor x="318" y="-25" name="ho"/>
  <anchor x="1691" y="701" name="hu"/>
  <anchor x="1506" y="0" name="hwa"/>
  <outline>
    <contour>
      <point x="558" y="-20" type="curve" smooth="yes"/>
      <point x="715" y="-20"/>
      <point x="831" y="50"/>
      <point x="903" y="154" type="curve"/>
      <point x="998" y="38"/>
      <point x="1066" y="-25"/>
      <point x="1302" y="-20" type="curve" smooth="yes"/>
      <point x="1479" y="-16"/>
      <point x="1697" y="114"/>
      <point x="1693" y="373" type="curve" smooth="yes"/>
      <point x="1683" y="1082" type="line"/>
      <point x="1498" y="1082" type="line"/>
      <point x="1508" y="373" type="line" smooth="yes"/>
      <point x="1511" y="189"/>
      <point x="1396" y="137"/>
      <point x="1279" y="137" type="curve" smooth="yes"/>
      <point x="1125" y="137"/>
      <point x="1048" y="216"/>
      <point x="1048" y="373" type="curve" smooth="yes"/>
      <point x="1048" y="1082" type="line"/>
      <point x="862" y="1082" type="line"/>
      <point x="862" y="364" type="line" smooth="yes"/>
      <point x="862" y="224"/>
      <point x="749" y="137"/>
      <point x="612" y="137" type="curve" smooth="yes"/>
      <point x="445" y="137"/>
      <point x="381" y="213"/>
      <point x="381" y="368" type="curve" smooth="yes"/>
      <point x="381" y="1082" type="line"/>
      <point x="196" y="1082" type="line"/>
      <point x="196" y="357" type="line" smooth="yes"/>
      <point x="196" y="106"/>
      <point x="321" y="-20"/>
    </contour>
  </outline>
</glyph>
<glyph name="three.frac0" format="2">
  <advance width="751"/>
  <note>
glyph00543
</note>
  <outline>
    <contour>
      <point x="360" y="-11" type="curve" smooth="yes"/>
      <point x="541.333" y="-11"/>
      <point x="666" y="78.667"/>
      <point x="666" y="220" type="curve" smooth="yes"/>
      <point x="666" y="315.333"/>
      <point x="616.333" y="376.667"/>
      <point x="517" y="404" type="curve"/>
      <point x="605" y="437.333"/>
      <point x="653" y="501.667"/>
      <point x="653" y="575" type="curve" smooth="yes"/>
      <point x="653" y="713.667"/>
      <point x="542.667" y="800"/>
      <point x="360" y="800" type="curve" smooth="yes"/>
      <point x="194.667" y="800"/>
      <point x="73" y="709.667"/>
      <point x="73" y="579" type="curve"/>
      <point x="230" y="579" type="line"/>
      <point x="230" y="633.667"/>
      <point x="286" y="671"/>
      <point x="362" y="671" type="curve" smooth="yes"/>
      <point x="455.333" y="671"/>
      <point x="495" y="628"/>
      <point x="495" y="568" type="curve" smooth="yes"/>
      <point x="495" y="504"/>
      <point x="447.667" y="459"/>
      <point x="349" y="459" type="curve" smooth="yes"/>
      <point x="265" y="459" type="line"/>
      <point x="265" y="343" type="line"/>
      <point x="353" y="343" type="line" smooth="yes"/>
      <point x="457" y="341.667"/>
      <point x="509" y="303.333"/>
      <point x="509" y="228" type="curve" smooth="yes"/>
      <point x="509" y="160"/>
      <point x="459.333" y="117"/>
      <point x="366" y="117" type="curve" smooth="yes"/>
      <point x="276.667" y="117"/>
      <point x="220" y="162"/>
      <point x="220" y="222" type="curve"/>
      <point x="62" y="222" type="line"/>
      <point x="62" y="79.333"/>
      <point x="184" y="-11"/>
    </contour>
  </outline>
</glyph>
<glyph name="tsa.base" format="2">
  <advance width="1151"/>
  <anchor x="929" y="-29" name="haa"/>
  <anchor x="570" y="1353" name="hat"/>
  <anchor x="1203" y="788" name="he"/>
  <anchor x="856" y="50" name="hee"/>
  <anchor x="941" y="110" name="hi"/>
  <anchor x="243" y="-9" name="ho"/>
  <anchor x="946" y="529" name="hu"/>
  <anchor x="901" y="-30" name="hwa"/>
  <anchor x="583" y="1115" name="neck"/>
  <outline>
    <contour>
      <point x="160" y="0" type="line"/>
      <point x="345" y="0" type="line"/>
      <point x="345" y="290" type="line" smooth="yes"/>
      <point x="345" y="385"/>
      <point x="400" y="537"/>
      <point x="570" y="537" type="curve" smooth="yes"/>
      <point x="746" y="537"/>
      <point x="806" y="384"/>
      <point x="806" y="287" type="curve" smooth="yes"/>
      <point x="806" y="0" type="line"/>
      <point x="991" y="0" type="line"/>
      <point x="991" y="300" type="line" smooth="yes"/>
      <point x="991" y="428"/>
      <point x="939" y="494"/>
      <point x="824" y="551" type="curve"/>
      <point x="933" y="608"/>
      <point x="983" y="683"/>
      <point x="983" y="788" type="curve" smooth="yes"/>
      <point x="983" y="965"/>
      <point x="816" y="1105"/>
      <point x="583" y="1105" type="curve" smooth="yes"/>
      <point x="378" y="1105"/>
      <point x="170" y="990"/>
      <point x="170" y="785" type="curve" smooth="yes"/>
      <point x="170" y="676"/>
      <point x="225" y="605"/>
      <point x="324" y="551" type="curve"/>
      <point x="213" y="494"/>
      <point x="160" y="417"/>
      <point x="160" y="303" type="curve" smooth="yes"/>
    </contour>
    <contour>
      <point x="570" y="632" type="curve" smooth="yes"/>
      <point x="436" y="632"/>
      <point x="356" y="693"/>
      <point x="356" y="772" type="curve" smooth="yes"/>
      <point x="356" y="872"/>
      <point x="456" y="950"/>
      <point x="570" y="950" type="curve" smooth="yes"/>
      <point x="697" y="950"/>
      <point x="797" y="870"/>
      <point x="797" y="774" type="curve" smooth="yes"/>
      <point x="797" y="698"/>
      <point x="732" y="632"/>
    </contour>
  </outline>
</glyph>
<glyph name="wa.base" format="2">
  <advance width="1650"/>
  <anchor x="862" y="-20" name="haa"/>
  <anchor x="749" y="-130" name="haa.acute"/>
  <anchor x="888" y="1363" name="hat"/>
  <anchor x="825" y="1232" name="he.acute.top"/>
  <anchor x="880" y="0" name="hee"/>
  <anchor x="943" y="-269" name="hi"/>
  <anchor x="1066" y="1330" name="ho.ring"/>
  <anchor x="1475" y="743" name="hu"/>
  <anchor x="811" y="0" name="hwa"/>
  <anchor x="833" y="1092" name="neck"/>
  <outline>
    <contour>
      <point x="580" y="-20" type="curve" smooth="yes"/>
      <point x="634" y="-20"/>
      <point x="682" y="-16"/>
      <point x="726" y="0" type="curve"/>
      <point x="941" y="0" type="line"/>
      <point x="981" y="-13"/>
      <point x="1025" y="-20"/>
      <point x="1075" y="-20" type="curve" smooth="yes"/>
      <point x="1326" y="-20"/>
      <point x="1500" y="205"/>
      <point x="1500" y="550" type="curve" smooth="yes"/>
      <point x="1500" y="882"/>
      <point x="1328" y="1102"/>
      <point x="1073" y="1102" type="curve" smooth="yes"/>
      <point x="1023" y="1102"/>
      <point x="978" y="1095"/>
      <point x="937" y="1082" type="curve"/>
      <point x="726" y="1082" type="line"/>
      <point x="683" y="1097"/>
      <point x="635" y="1102"/>
      <point x="582" y="1102" type="curve" smooth="yes"/>
      <point x="327" y="1102"/>
      <point x="155" y="882"/>
      <point x="155" y="536" type="curve" smooth="yes"/>
      <point x="155" y="205"/>
      <point x="329" y="-20"/>
    </contour>
    <contour>
      <point x="626" y="137" type="curve" smooth="yes"/>
      <point x="447" y="137"/>
      <point x="340" y="284"/>
      <point x="340" y="529" type="curve" smooth="yes"/>
      <point x="340" y="804"/>
      <point x="447" y="945"/>
      <point x="628" y="945" type="curve" smooth="yes"/>
      <point x="663" y="945"/>
      <point x="716" y="940"/>
      <point x="746" y="931" type="curve"/>
      <point x="746" y="163" type="line"/>
      <point x="713" y="147"/>
      <point x="659" y="137"/>
    </contour>
    <contour>
      <point x="988" y="137" type="curve" smooth="yes"/>
      <point x="971" y="135"/>
      <point x="935" y="151"/>
      <point x="919" y="156" type="curve"/>
      <point x="919" y="942" type="line"/>
      <point x="957" y="944"/>
      <point x="993" y="942"/>
      <point x="1026" y="936" type="curve" smooth="yes"/>
      <point x="1209" y="904"/>
      <point x="1315" y="762"/>
      <point x="1315" y="529" type="curve" smooth="yes"/>
      <point x="1315" y="284"/>
      <point x="1166" y="158"/>
    </contour>
  </outline>
</glyph>
<glyph name="ya.base" format="2">
  <advance width="1141"/>
  <anchor x="252" y="154" name="da"/>
  <anchor x="677" y="-159" name="di"/>
  <anchor x="720" y="234" name="du"/>
  <anchor x="861" y="-10" name="haa"/>
  <anchor x="419" y="-45" name="haa.acute"/>
  <anchor x="538" y="1341" name="hat"/>
  <anchor x="1242" y="756" name="he"/>
  <anchor x="267" y="970" name="he.left.outer"/>
  <anchor x="859" y="53" name="hee"/>
  <anchor x="956" y="11" name="hha"/>
  <anchor x="755" y="-290" name="hi"/>
  <anchor x="197" y="-10" name="ho"/>
  <anchor x="670" y="289" name="hu"/>
  <anchor x="834" y="0" name="hwa"/>
  <anchor x="575" y="1112" name="neck"/>
  <anchor x="400" y="64" name="ye"/>
  <anchor x="356" y="5" name="ye.extend"/>
  <anchor x="412" y="249" name="yee"/>
  <anchor x="201" y="381" name="yi"/>
  <anchor x="201" y="285" name="yu"/>
  <outline>
    <contour>
      <point x="270" y="0" type="line"/>
      <point x="458" y="0" type="line"/>
      <point x="338" y="488" type="line"/>
      <point x="912" y="488" type="line" smooth="yes"/>
      <point x="963" y="488"/>
      <point x="1002" y="519"/>
      <point x="1008" y="565" type="curve" smooth="yes"/>
      <point x="1052" y="907"/>
      <point x="904" y="1102"/>
      <point x="623" y="1102" type="curve" smooth="yes"/>
      <point x="451" y="1102"/>
      <point x="294" y="1001"/>
      <point x="212" y="833" type="curve" smooth="yes"/>
      <point x="171" y="748"/>
      <point x="124" y="602"/>
      <point x="150" y="495" type="curve" smooth="yes"/>
    </contour>
    <contour>
      <point x="341" y="590" type="line"/>
      <point x="365" y="796"/>
      <point x="474" y="950"/>
      <point x="623" y="950" type="curve" smooth="yes"/>
      <point x="798" y="950"/>
      <point x="861" y="792"/>
      <point x="842" y="590" type="curve"/>
    </contour>
  </outline>
</glyph>
